<?xml version="1.0" standalone="no"?>
<!DOCTYPE svg PUBLIC "-//W3C//DTD SVG 20010904//EN"
 "http://www.w3.org/TR/2001/REC-SVG-20010904/DTD/svg10.dtd">
<svg version="1.0" xmlns="http://www.w3.org/2000/svg"
 width="1200.000000pt" height="1200.000000pt" viewBox="0 0 1200.000000 1200.000000"
 preserveAspectRatio="xMidYMid meet">
<metadata>
Created by potrace 1.11, written by Peter Selinger 2001-2013
</metadata>
<g transform="translate(0.000000,1200.000000) scale(0.100000,-0.100000)"
fill="#000000" stroke="none">
<path d="M9818 8140 c-538 -45 -865 -276 -1002 -710 -52 -162 -59 -230 -63
-612 l-5 -358 -479 0 -479 0 0 -220 0 -220 480 0 480 0 0 -1060 0 -1060 265 0
265 0 0 1060 0 1060 655 0 655 0 0 220 0 220 -655 0 -655 0 0 243 c1 405 18
541 85 683 146 305 471 382 1134 268 79 -13 155 -27 168 -30 l23 -6 -2 228 -3
229 -99 17 c-250 44 -572 64 -768 48z"/>
<path d="M1310 6091 c0 -1913 1 -2019 18 -2026 388 -151 865 -227 1225 -197
232 20 380 59 562 148 422 207 688 632 746 1193 15 145 6 520 -16 656 -79 495
-270 821 -576 980 -332 172 -823 119 -1149 -125 -70 -52 -199 -178 -258 -253
-25 -31 -46 -56 -47 -55 0 2 4 120 11 263 7 143 13 524 13 848 l1 587 -265 0
-265 0 0 -2019z m1581 369 c197 -61 338 -258 398 -557 61 -298 57 -724 -9
-960 -77 -271 -217 -462 -412 -557 -151 -75 -222 -89 -428 -90 -197 0 -290 15
-489 80 l-111 36 0 728 0 727 104 124 c208 249 398 400 576 458 133 43 257 47
371 11z"/>
<path d="M5885 6910 c-181 -32 -294 -69 -448 -146 -528 -266 -819 -855 -768
-1556 56 -789 447 -1232 1178 -1334 167 -23 538 -15 708 15 134 24 265 57 370
93 l70 25 3 243 c2 228 1 242 -15 237 -10 -3 -69 -27 -131 -52 -229 -94 -442
-131 -707 -122 -188 6 -308 33 -439 96 -261 128 -413 349 -472 686 -25 147
-24 426 4 560 95 466 412 776 843 824 99 11 298 2 414 -19 158 -29 348 -90
465 -150 l40 -21 -2 253 -3 253 -110 37 c-216 72 -405 98 -702 97 -143 0 -226
-6 -298 -19z"/>
</g>
</svg>
